<svg width="30" height="30" viewBox="0 0 30 30" fill="none" xmlns="http://www.w3.org/2000/svg">
<path d="M4.34442 21L8.88042 7.752H10.7164L15.2524 21H13.7764L12.4444 17.22H7.11642L5.82042 21H4.34442ZM7.47642 15.924H12.0844L9.79842 9.012L7.47642 15.924ZM19.5735 21.018C19.0215 21.018 18.5595 20.922 18.1875 20.73C17.8155 20.526 17.5335 20.202 17.3415 19.758C17.1495 19.302 17.0535 18.69 17.0535 17.922V7.266H18.4755V17.742C18.4755 18.318 18.5295 18.756 18.6375 19.056C18.7455 19.344 18.9015 19.548 19.1055 19.668C19.3095 19.776 19.5495 19.848 19.8255 19.884L20.7975 19.992V21.018H19.5735ZM24.8646 21.018C24.3126 21.018 23.8506 20.922 23.4786 20.73C23.1066 20.526 22.8246 20.202 22.6326 19.758C22.4406 19.302 22.3446 18.69 22.3446 17.922V7.266H23.7666V17.742C23.7666 18.318 23.8206 18.756 23.9286 19.056C24.0366 19.344 24.1926 19.548 24.3966 19.668C24.6006 19.776 24.8406 19.848 25.1166 19.884L26.0886 19.992V21.018H24.8646Z" fill="#F1F2F3"/>
</svg>
